<svg xmlns="http://www.w3.org/2000/svg" xmlns:xlink="http://www.w3.org/1999/xlink">
 <defs>
   <svg id="bell" class="icon" viewBox="0 0 24 24">
     <path d="M20.5 16.5v-5.5c0-3.65-2.309-6.756-5.541-7.959-.221-1.438-1.459-2.541-2.959-2.541s-2.742 1.103-2.963 2.541c-3.232
                   1.203-5.537 4.309-5.537 7.959v5.5c0 1.657-1.344 3-3 3h23c-1.659 0-3-1.343-3-3zM15 19.5c0 1.657-1.344 3-3 3-1.659 0-3-1.343-3-3" />
   </svg>
   <svg id="bell-filled" class="icon filled" viewBox="0 0 24 24">
     <g>
       <path d="M23.5,18c-1.378,0-2.5-1.121-2.5-2.5V11c0-3.641-2.24-6.951-5.603-8.325C15.022,1.108,13.637,0,12,0
                    c-1.612,0-3.024,1.131-3.4,2.675C5.239,4.049,3,7.358,3,11v4.5C3,16.879,1.878,18,0.5,18C0.224,18,0,18.224,0,18.5S0.224,19,0.5,19
                    h23c0.276,0,0.5-0.224,0.5-0.5S23.776,18,23.5,18z" />
       <path d="M15,20H9c-0.276,0-0.5,0.224-0.5,0.5c0,1.93,1.57,3.5,3.5,3.5s3.5-1.57,3.5-3.5C15.5,20.224,15.276,20,15,20z" />
     </g>
   </svg>
   <svg id="tick" class="icon" viewBox="0 0 24 24">
     <path d="M23.5.5l-16.5 23-6.5-6.5" />
   </svg>
    <svg id="education" class="icon" viewBox="0 0 512 512">
        <g>
            <g>
                <g>
                    <path d="M360.465,443.988c-4.574-1.161-9.207,1.638-10.342,6.204l-8.533,34.133c-1.152,4.582,1.638,9.207,6.212,10.351
                        c0.691,0.179,1.391,0.256,2.074,0.256c3.823,0,7.296-2.586,8.269-6.46l8.533-34.133
                        C367.821,449.765,365.039,445.132,360.465,443.988z"/>
                    <path d="M256,273.066c1.109,0,2.219-0.213,3.26-0.648l93.867-38.844c4.352-1.801,6.417-6.793,4.617-11.145
                        c-1.801-4.361-6.81-6.409-11.153-4.625L256,255.299L17.067,156.432v-2.833c0-4.71-3.823-8.533-8.533-8.533S0,148.889,0,153.599
                        v8.533c0,3.456,2.082,6.571,5.274,7.885l247.467,102.4C253.781,272.852,254.891,273.066,256,273.066z"/>
                    <path d="M357.513,360.49c-2.082-4.224-7.185-5.965-11.426-3.874c-16.205,8.013-43.273,17.331-81.553,18.603v-76.553
                        c0-4.71-3.823-8.533-8.533-8.533s-8.533,3.823-8.533,8.533v76.476c-105.958-3.379-140.151-67.567-145.067-78.251v-57.958
                        c0-4.71-3.823-8.533-8.533-8.533c-4.71,0-8.533,3.823-8.533,8.533v59.733c0,1.084,0.205,2.159,0.606,3.174
                        c1.485,3.695,37.803,90.692,170.061,90.692c46.225,0,78.618-11.213,97.647-20.617
                        C357.879,369.825,359.612,364.714,357.513,360.49z"/>
                    <path d="M384,452.266c-4.719,0-8.533,3.823-8.533,8.533v25.6c0,4.71,3.814,8.533,8.533,8.533c4.719,0,8.533-3.823,8.533-8.533
                        v-25.6C392.533,456.089,388.719,452.266,384,452.266z"/>
                    <path d="M503.467,145.066c-4.719,0-8.533,3.823-8.533,8.533v2.816l-102.4,42.146v-15.42l114.193-47.258
                        c3.191-1.314,5.274-4.429,5.274-7.885c0-3.456-2.082-6.562-5.265-7.885L259.26,17.714c-2.091-0.862-4.429-0.862-6.519,0
                        L5.274,120.114C2.082,121.437,0,124.543,0,127.999c0,3.456,2.082,6.571,5.274,7.885l247.467,102.4
                        c1.041,0.435,2.15,0.649,3.26,0.649s2.219-0.213,3.26-0.649l89.481-37.026c4.361-1.792,6.426-6.784,4.625-11.145
                        c-1.801-4.352-6.793-6.409-11.145-4.617L256,221.166L30.848,127.999L256,34.832l225.152,93.167l-97.971,40.542l-93.841-35.038
                        c0.495-1.775,0.794-3.601,0.794-5.504c0-14.353-14.993-25.6-34.133-25.6s-34.133,11.247-34.133,25.6
                        c0,14.353,14.993,25.6,34.133,25.6c8.542,0,16.162-2.33,22.084-6.084l97.382,36.361v27.341v0.009v182.878
                        c-9.907,3.541-17.067,12.919-17.067,24.03c0,14.114,11.486,25.6,25.6,25.6s25.6-11.486,25.6-25.6
                        c0-11.11-7.159-20.488-17.067-24.03v-48.435c24.499-18.492,33.28-43.119,33.664-44.211c0.307-0.896,0.469-1.843,0.469-2.79
                        v-59.733c0-4.71-3.814-8.533-8.533-8.533s-8.533,3.823-8.533,8.533v58.155c-1.476,3.618-6.605,14.771-17.067,25.779V217.019
                        l114.185-46.993c3.2-1.314,5.282-4.437,5.282-7.893v-8.533C512,148.889,508.186,145.066,503.467,145.066z M256,136.532
                        c-10.419,0-17.067-5.052-17.067-8.533c0-3.482,6.647-8.533,17.067-8.533s17.067,5.052,17.067,8.533
                        C273.067,131.481,266.419,136.532,256,136.532z M384,426.666c-4.71,0-8.533-3.831-8.533-8.533c0-4.702,3.823-8.533,8.533-8.533
                        s8.533,3.831,8.533,8.533C392.533,422.834,388.71,426.666,384,426.666z"/>
                    <path d="M417.877,450.192c-1.143-4.565-5.786-7.356-10.342-6.204c-4.574,1.143-7.356,5.777-6.212,10.351l8.533,34.133
                        c0.973,3.874,4.446,6.46,8.269,6.46c0.683,0,1.382-0.077,2.074-0.256c4.574-1.143,7.356-5.769,6.212-10.351L417.877,450.192z"/>
                </g>
            </g>
        </g>
    </svg>
    <svg id="skill" class="icon" viewBox="0 0 512 512" >
        <g>
            <g>
                <path d="M504.417,208.764l-39.317-9.795l-20.923-50.488l20.865-34.711c2.366-3.935,1.748-8.976-1.499-12.223l-53.09-53.089
                    c-3.248-3.247-8.289-3.865-12.224-1.5l-34.71,20.866L313.031,46.9l-9.796-39.317C302.126,3.127,298.124,0,293.532,0h-75.064
                    c-4.592,0-8.594,3.127-9.703,7.583L198.969,46.9L148.48,67.823l-34.71-20.866c-3.936-2.366-8.978-1.748-12.224,1.5l-53.09,53.089
                    c-3.247,3.247-3.865,8.288-1.499,12.223l20.865,34.711L46.9,198.969l-39.317,9.795C3.127,209.875,0,213.876,0,218.468v75.064
                    c0,4.592,3.127,8.593,7.583,9.704l39.316,9.794l20.924,50.489L46.958,398.23c-2.366,3.935-1.748,8.976,1.499,12.223l53.09,53.089
                    c3.248,3.247,8.289,3.864,12.224,1.5l34.71-20.866l50.488,20.924l9.796,39.317c1.109,4.456,5.111,7.583,9.703,7.583h75.064
                    c4.592,0,8.594-3.127,9.703-7.583l9.796-39.317l50.488-20.924l34.71,20.866c3.934,2.364,8.976,1.747,12.224-1.5l53.09-53.089
                    c3.247-3.247,3.865-8.288,1.499-12.223l-20.865-34.711l20.924-50.489l39.316-9.794c4.456-1.11,7.583-5.112,7.583-9.704v-75.064
                    C512,213.876,508.873,209.875,504.417,208.764z M492,285.718l-36.625,9.124c-3.076,0.767-5.607,2.946-6.821,5.875l-24.784,59.804
                    c-1.214,2.93-0.967,6.262,0.668,8.98l19.438,32.336l-42.038,42.038l-32.335-19.438c-2.718-1.634-6.052-1.882-8.98-0.667
                    l-59.804,24.784c-2.929,1.214-5.108,3.745-5.875,6.821L285.718,492h-59.436l-9.125-36.626c-0.767-3.076-2.946-5.607-5.875-6.821
                    l-59.804-24.784c-2.927-1.213-6.261-0.967-8.98,0.667l-32.335,19.438l-42.038-42.038L87.563,369.5
                    c1.635-2.718,1.882-6.05,0.668-8.98l-24.784-59.804c-1.214-2.929-3.745-5.108-6.821-5.875L20,285.718v-59.436l36.626-9.125
                    c3.077-0.767,5.607-2.946,6.821-5.875l24.783-59.803c1.214-2.93,0.967-6.262-0.668-8.98l-19.438-32.336l42.038-42.038
                    l32.335,19.438c2.719,1.633,6.052,1.882,8.98,0.667l59.804-24.784c2.929-1.214,5.108-3.745,5.875-6.821L226.282,20h59.436
                    l9.125,36.626c0.767,3.076,2.946,5.607,5.875,6.821l59.804,24.784c2.928,1.214,6.262,0.967,8.98-0.667l32.335-19.438
                    l42.038,42.038L424.437,142.5c-1.635,2.718-1.882,6.05-0.668,8.98l24.783,59.803c1.214,2.929,3.744,5.108,6.821,5.875L492,226.282
                    V285.718z"/>
            </g>
        </g>
        <g>
            <g>
                <path d="M296.388,99.077c-5.354-1.375-10.8,1.851-12.173,7.2c-1.372,5.349,1.851,10.799,7.2,12.172
                    C354.171,134.556,398,191.119,398,256c0,34.062-12.06,65.359-32.128,89.853c-1.303-12.098-6.051-23.697-13.72-33.224
                    c-9.093-11.294-21.9-19.22-36.065-22.317l-17.855-3.904c-4.792-1.048-8.408-5.007-9.152-9.793
                    c15.616-10.62,25.895-28.529,25.895-48.796V194.64c0-32.518-26.455-58.973-58.974-58.973c-32.519,0-58.974,26.455-58.974,58.973
                    v33.179c0,20.168,10.182,37.997,25.669,48.636c-0.667,4.834-4.313,8.898-9.172,9.964l-17.654,3.873
                    c-14.154,3.105-26.952,11.033-36.035,22.325c-7.666,9.53-12.411,21.134-13.709,33.234C126.059,321.356,114,290.061,114,256
                    c0-63.948,43.045-120.304,104.676-137.046c5.33-1.448,8.477-6.942,7.029-12.272c-1.448-5.329-6.943-8.477-12.271-7.029
                    C143.112,118.756,94,183.048,94,256c0,89.327,72.673,162,162,162s162-72.673,162-162C418,181.984,367.991,117.455,296.388,99.077z
                    M217.026,194.64c0-21.49,17.484-38.973,38.974-38.973s38.974,17.483,38.974,38.973v0.884c-5.944-1.535-11.411-4.602-15.899-9.011
                    l-8.896-8.736c-2.187-2.146-5.235-3.17-8.275-2.784c-3.04,0.389-5.733,2.149-7.309,4.777
                    c-6.243,10.416-17.665,16.886-29.809,16.886h-7.76V194.64z M217.026,227.818v-11.163h7.76c14.935,0,29.178-6.213,39.387-16.745
                    l0.887,0.871c8.273,8.127,18.671,13.342,29.914,15.152v11.885c0,21.49-17.483,38.973-38.974,38.973
                    C234.509,266.791,217.026,249.308,217.026,227.818z M275.676,294.351c-11.702,8.647-27.845,8.605-39.507-0.119
                    c2.155-2.8,3.852-5.952,4.991-9.334c4.744,1.234,9.716,1.894,14.84,1.894c5.041,0,9.936-0.638,14.609-1.834
                    C271.766,288.366,273.489,291.539,275.676,294.351z M346.251,365.551C321.698,385.814,290.246,398,256,398
                    c-34.246,0-65.698-12.186-90.251-32.449v-12.954c0-20.41,14.47-38.398,34.405-42.771l17.654-3.873
                    c0.36-0.079,0.716-0.169,1.072-0.26C229.182,315.758,242.587,320.8,256,320.8c13.395,0,26.782-5.03,37.078-15.068
                    c0.293,0.073,0.585,0.148,0.881,0.213l17.856,3.904c19.953,4.363,34.436,22.353,34.436,42.778V365.551z"/>
            </g>
        </g>
        <g>
            <g>
                <path d="M256.673,94.001L256,94c-5.522,0-10,4.477-10,10s4.478,10,10,10l0.579,0.001c0.016,0,0.031,0,0.048,0
                    c5.501,0,9.973-4.446,9.999-9.953C266.651,98.525,262.195,94.027,256.673,94.001z"/>
            </g>
        </g>
        <g>
            <g>
                <path d="M208.423,357.875l9.877-9.877c3.906-3.905,3.906-10.237,0.001-14.142c-3.906-3.905-10.236-3.905-14.143,0l-16.947,16.948
                    c-3.905,3.905-3.905,10.236,0,14.142l16.947,16.948c1.953,1.953,4.512,2.929,7.071,2.929s5.118-0.977,7.071-2.929
                    c3.905-3.905,3.905-10.237,0-14.142L208.423,357.875z"/>
            </g>
        </g>
        <g>
            <g>
                <path d="M327.891,350.804l-16.946-16.948c-3.905-3.905-10.235-3.905-14.143,0c-3.905,3.905-3.905,10.237,0,14.142l9.877,9.877
                    l-9.877,9.877c-3.905,3.905-3.905,10.237,0,14.142c1.953,1.953,4.512,2.929,7.071,2.929s5.118-0.977,7.071-2.929l16.947-16.948
                    C331.796,361.041,331.796,354.71,327.891,350.804z"/>
            </g>
        </g>
        <g>
            <g>
                <path d="M273.115,328.894c-4.763-2.799-10.891-1.207-13.688,3.555l-23.93,40.72c-2.799,4.761-1.207,10.89,3.555,13.688
                    c1.592,0.936,3.335,1.38,5.057,1.38c3.429,0,6.769-1.765,8.631-4.935l23.93-40.72C279.469,337.82,277.877,331.692,273.115,328.894
                    z"/>
            </g>
        </g>
    </svg>
    <svg id="tool" class="icon" viewBox="0 0 512 512">
        <g>
            <g>
                <path d="M419.658,319.097c-3.531-11.585-9.88-22.113-18.48-30.64c-13.697-13.773-32.336-21.493-51.76-21.44
                    c-9.927,0.005-19.751,2.019-28.88,5.92l-72-72l95.6-94.88l22.64-0.64c2.739-0.083,5.244-1.563,6.64-3.92l32.4-54.48
                    c1.883-3.144,1.388-7.166-1.2-9.76l-28-28c-2.594-2.588-6.616-3.083-9.76-1.2l-54.48,32.4c-2.357,1.396-3.837,3.901-3.92,6.64
                    l-0.64,22.56l-95.36,95.2l-65.44-65.44c6.871-39.839-19.855-77.705-59.694-84.576c-18.459-3.184-37.437,0.83-53.026,11.216
                    c-3.66,2.475-4.621,7.448-2.146,11.108c0.696,1.029,1.622,1.882,2.706,2.492l36.32,20.24c8,4.56,9.6,18.16,3.12,29.68
                    c-6.48,11.52-18.88,17.44-26.96,12.96l-33.68-18.24c-3.871-2.13-8.736-0.718-10.865,3.153c-0.734,1.333-1.072,2.848-0.974,4.367
                    c2.531,40.348,37.292,71.004,77.64,68.473c8.336-0.523,16.521-2.469,24.2-5.753l59.52,59.52l-25.76,25.76l-5.84-5.76
                    c-6.465-6.187-16.655-6.187-23.12,0l-8,8c-6.095,5.934-6.481,15.599-0.88,22l-94.64,94.48c-6.384,6.109-6.607,16.238-0.498,22.622
                    c0.162,0.17,0.328,0.336,0.498,0.498l27.04,27.04c6.109,6.384,16.238,6.607,22.622,0.498c0.17-0.162,0.336-0.328,0.498-0.498
                    l94.72-94.64c6.401,5.601,16.066,5.215,22-0.88l8-8c6.384-6.109,6.607-16.238,0.498-22.622c-0.162-0.17-0.328-0.336-0.498-0.498
                    l-5.84-5.84l25.6-26.16l77.6,77.6c-6.704,39.868,20.18,77.621,60.048,84.325c23.614,3.971,47.677-3.859,64.432-20.965
                    c2.938-3.3,2.646-8.356-0.654-11.295c-0.852-0.759-1.857-1.327-2.946-1.665l-45.04-12.08c-4.414-1.419-7.908-4.824-9.44-9.2
                    c-2.34-6.033-2.621-12.67-0.8-18.88c3.36-12.56,14-21.52,22.96-19.12l44.56,12c0.716,0.104,1.444,0.104,2.16,0
                    c4.418,0.054,8.043-3.484,8.096-7.902C420.57,321.561,420.263,320.263,419.658,319.097z M321.178,78.537
                    c1.44-1.45,2.27-3.397,2.32-5.44l0.64-21.36l45.36-26.96l19.2,19.2l-26.4,45.28l-21.76,0.8c-2.043,0.05-3.99,0.88-5.44,2.32
                    l-97.6,97.52l-13.76-13.76L321.178,78.537z M43.738,397.337l-27.44-27.28l95.12-94.88l13.76,13.76l13.12,13.6L43.738,397.337z
                    M160.778,301.337l-10.56-10.64l-4.08-4.08l-33.6-33.84l8-8l48,48.64L160.778,301.337z M162.298,264.857l-13.76-13.76l25.76-25.76
                    l13.76,13.76L162.298,264.857z M369.658,303.337c-2.374-0.638-4.822-0.961-7.28-0.96c-17.441,1.408-31.837,14.204-35.28,31.36
                    c-2.73,9.634-2.196,19.901,1.52,29.2c3.429,8.949,10.866,15.764,20.08,18.4l29.76,8c-27.138,16.171-62.247,7.281-78.418-19.856
                    c-7.595-12.745-9.94-27.942-6.542-42.384c0.609-2.686-0.207-5.497-2.16-7.44l-180.32-180.48c-2.56-2.405-6.389-2.859-9.44-1.12
                    c-8.261,4.359-17.46,6.639-26.8,6.64c-24.069,0.021-45.568-15.048-53.76-37.68l18.24,10.16c4.252,2.381,9.047,3.621,13.92,3.6
                    c14.812-0.853,28.06-9.502,34.8-22.72c10.88-19.44,6.64-42.56-9.36-51.52l-23.28-13.2c29.75-10.627,62.481,4.876,73.108,34.625
                    c3.688,10.326,4.331,21.494,1.852,32.175c-0.609,2.686,0.207,5.497,2.16,7.44l180.72,180.64c2.47,2.473,6.26,3.057,9.36,1.44
                    c8.262-4.356,17.46-6.635,26.8-6.64c20.258-0.016,39.009,10.699,49.28,28.16L369.658,303.337z"/>
            </g>
        </g>
    </svg>
    <svg id="js" class="icon" viewBox="0 0 263 263">
        <g sytle="isolation:isolate;">
            <g>
                <g id="Design">
                    <path style="fill:#c3002f;" d="M252.54,127.39A125.28,125.28,0,0,0,67.49,17.32L237.36,187.2A124.68,124.68,0,0,0,252.54,127.39Z"/>
                    <path style="fill:#dd0031;" d="M67.49,17.32A125.26,125.26,0,1,0,237.36,187.2Z"/>
                    <polyline style="fill:none;stroke:#fff;stroke-linecap:round;stroke-miterlimit:10;stroke-width:20px;" points="82.41 89.39 42.89 131.38 76.9 165.39"/>
                    <polyline style="fill:none;stroke:#fff;stroke-linecap:round;stroke-miterlimit:10;stroke-width:20px;" points="172.18 165.39 211.69 123.39 177.69 89.39"/>
                    <line style="fill:none;stroke:#fff;stroke-linecap:round;stroke-miterlimit:10;stroke-width:20px;" x1="144.77" y1="68.85" x2="109.82" y2="185.93"/>
                </g>
            </g>
        </g>
    </svg>
 </defs>
</svg>